#!OML:ASF H:\Terrain\Patient Classification 1\Animal2\Wednesday\Animal2.ASF
:FULLY-SPECIFIED
:DEGREES
2856
root 12.8717 16.2854 -13.5986 359.405 -64.5635 -349.882
lowerback 12.7152 -1.36917 1.48134
upperback -9.51858 -1.87411 -0.982077
thorax -18.2554 -1.18165 -1.42559
lowerneck -5.55281 0.920742 14.997
upperneck -3.91697 -0.0481494 -19.4208
head -0.144002 -0.306701 -8.54635
rclavicle -1.03865e-014 1.35174e-014
rhumerus -51.6797 -14.9352 -13.4919
rradius 29.6944
rwrist 11.928
rhand -21.5844 11.0743
rfingers 7.12502
rthumb 4.8101 -18.8511
lclavicle -1.03865e-014 1.35174e-014
lhumerus -64.9435 2.09028 14.7622
lradius 23.2157
lwrist 4.02085
lhand -19.4911 27.0472
lfingers 7.12502
lthumb 6.83109 56.917
rfemur -25.3136 8.52947 -0.0675397
rtibia 51.3196
rfoot -34.552 -13.0776
rtoes -29.2576
lfemur -25.5959 -1.2048 -4.18285
ltibia 42.9694
lfoot -25.6645 -3.74098
ltoes -26.8398
2857
root 12.8835 16.291 -13.6023 359.3 -64.6742 -349.818
lowerback 12.9491 -1.41909 1.46998
upperback -9.49327 -1.93797 -0.965115
thorax -18.3816 -1.20615 -1.37718
lowerneck -5.44582 0.892633 14.9785
upperneck -3.90726 -0.0692545 -19.3594
head -0.164147 -0.311206 -8.52207
rclavicle -7.09661e-014 -2.78299e-014
rhumerus -51.7057 -14.4962 -13.431
rradius 29.9187
rwrist 11.3311
rhand -22.077 11.2726
rfingers 7.12502
rthumb 4.3344 -18.663
lclavicle -7.09661e-014 -2.78299e-014
lhumerus -64.6966 1.73705 14.7449
lradius 23.6152
lwrist 5.40186
lhand -20.9083 28.7915
lfingers 7.12502
lthumb 5.46284 58.701
rfemur -25.3715 8.57657 -0.106455
rtibia 51.2987
rfoot -34.3264 -13.3625
rtoes -30.2664
lfemur -25.4942 -1.33835 -4.20454
ltibia 42.8845
lfoot -25.5667 -3.75864
ltoes -26.5041
2858
root 12.8933 16.2959 -13.6079 359.418 -64.8581 -349.966
lowerback 13.3137 -1.4789 1.37016
upperback -9.60357 -2.01402 -0.794097
thorax -18.761 -1.21262 -1.09057
lowerneck -5.14473 0.888538 14.9055
upperneck -3.92803 -0.038862 -19.4148
head -0.215219 -0.280748 -8.52613
rclavicle 1.47101e-014 -2.38542e-015
rhumerus -51.6168 -13.9191 -13.2916
rradius 30.0484
rwrist 11.0382
rhand -23.3097 11.309
rfingers 7.12502
rthumb 3.14402 -18.6475
lclavicle 1.47101e-014 -2.38542e-015
lhumerus -64.8614 1.39456 14.6368
lradius 23.9129
lwrist 6.3147
lhand -22.631 29.6249
lfingers 7.12502
lthumb 3.79942 59.5708
rfemur -25.4849 8.80156 -0.0430623
rtibia 51.27
rfoot -34.3421 -13.2895
rtoes -30.5038
lfemur -25.4288 -1.3978 -4.12139
ltibia 42.8666
lfoot -25.5854 -3.36871
ltoes -26.6962
2859
root 12.9053 16.2969 -13.6152 360.058 -65.0553 -350.577
lowerback 13.5093 -1.59285 1.53611
upperback -9.70307 -2.10059 -0.578835
thorax -19.0242 -1.25295 -0.900246
lowerneck -4.93849 0.901262 14.6459
upperneck -3.84032 0.0291631 -19.3109
head -0.214974 -0.234719 -8.44159
rclavicle -5.1684e-015 7.95139e-015
rhumerus -51.4058 -13.6477 -13.1038
rradius 29.8702
rwrist 10.9609
rhand -24.8362 11.6233
rfingers 7.12502
rthumb 1.66972 -18.3499
lclavicle -5.1684e-015 7.95139e-015
lhumerus -65.0958 1.27061 14.4659
lradius 24.1579
lwrist 7.04172
lhand -24.6074 30.1512
lfingers 7.12502
lthumb 1.89074 60.1225
rfemur -25.7402 9.05132 0.241126
rtibia 51.261
rfoot -34.2718 -13.3765
rtoes -30.7072
lfemur -25.5468 -1.31245 -3.79843
ltibia 42.9246
lfoot -25.5696 -3.17816
ltoes -26.2878
2860
root 12.9176 16.294 -13.6178 360.639 -65.2316 -351.056
lowerback 13.48 -1.65801 1.73394
upperback -9.71381 -2.12591 -0.447504
thorax -19.0226 -1.27723 -0.850764
lowerneck -5.05535 0.934432 14.4978
upperneck -3.57093 0.103711 -19.264
head -0.106715 -0.205082 -8.39663
rclavicle 6.16232e-015 3.18055e-015
rhumerus -51.3984 -13.6132 -12.889
rradius 29.7497
rwrist 10.562
rhand -25.7696 12.1291
rfingers 7.12502
rthumb 0.768229 -17.8492
lclavicle 6.16232e-015 3.18055e-015
lhumerus -65.049 1.40019 14.3725
lradius 24.2834
lwrist 7.94152
lhand -26.2542 30.7175
lfingers 7.12502
lthumb 0.300203 60.6971
rfemur -26.06 9.15803 0.43236
rtibia 51.2665
rfoot -34.0007 -13.6719
rtoes -31.1806
lfemur -25.7652 -1.16579 -3.54382
ltibia 43.0337
lfoot -25.5694 -3.14808
ltoes -26.2583
2861
root 12.9264 16.291 -13.6184 360.841 -65.4538 -351.172
lowerback 13.4642 -1.65976 1.68924
upperback -9.69961 -2.11455 -0.307006
thorax -18.9832 -1.25168 -0.665539
lowerneck -5.23645 0.95655 14.3681
upperneck -3.2871 0.154142 -19.3014
head 0.0133324 -0.192188 -8.3842
rclavicle 2.70844e-014 9.14409e-015
rhumerus -51.4995 -13.3846 -12.7508
rradius 29.9466
rwrist 9.94058
rhand -26.4194 12.523
rfingers 7.12502
rthumb 0.140682 -17.4567
lclavicle 2.70844e-014 9.14409e-015
lhumerus -65.0632 1.63564 14.4117
lradius 24.5381
lwrist 9.11541
lhand -27.8618 31.7454
lfingers 7.12502
lthumb -1.25244 61.7214
rfemur -26.3195 9.27615 0.440101
rtibia 51.2895
rfoot -33.8037 -13.7854
rtoes -31.4509
lfemur -25.8614 -1.03661 -3.47637
ltibia 43.1443
lfoot -25.7244 -2.67047
ltoes -28.3139
2862
root 12.9358 16.2912 -13.6226 361.017 -65.68 -351.338
lowerback 13.5836 -1.66685 1.56427
upperback -9.68273 -2.11658 -0.113805
thorax -19.026 -1.2154 -0.365871
lowerneck -5.15158 0.927998 14.1648
upperneck -3.26146 0.136292 -19.281
head 0.00251736 -0.196199 -8.34046
rclavicle 3.41413e-014 -5.96354e-015
rhumerus -51.5974 -12.9786 -12.8057
rradius 30.1731
rwrist 9.60866
rhand -27.5502 12.1272
rfingers 7.12502
rthumb -0.951441 -17.8504
lclavicle 3.41413e-014 -5.96354e-015
lhumerus -65.0954 1.96582 14.4223
lradius 24.7539
lwrist 10.69
lhand -30.0071 32.7151
lfingers 7.12502
lthumb -3.32433 62.669
rfemur -26.5076 9.46929 0.483595
rtibia 51.3371
rfoot -33.7799 -13.7077
rtoes -31.4781
lfemur -25.855 -0.914082 -3.38966
ltibia 43.2325
lfoot -25.9789 -2.07304
ltoes -30.3327
2863
root 12.9468 16.2904 -13.6294 360.829 -65.8854 -351.086
lowerback 13.6012 -1.62265 1.29884
upperback -9.58136 -2.10067 -0.0591477
thorax -18.889 -1.16599 -0.160169
lowerneck -5.04282 0.849624 14.2105
upperneck -3.45964 0.0104902 -19.3059
head -0.0934933 -0.251774 -8.35986
rclavicle 6.03311e-014 2.70347e-014
rhumerus -51.9564 -13.1198 -12.7041
rradius 30.1454
rwrist 9.82955
rhand -28.9672 11.8425
rfingers 7.12502
rthumb -2.32003 -18.1246
lclavicle 6.03311e-014 2.70347e-014
lhumerus -64.8288 2.42041 14.4725
lradius 24.6745
lwrist 12.1152
lhand -31.9443 33.0377
lfingers 7.12502
lthumb -5.19491 62.954
rfemur -26.7388 9.57944 0.32629
rtibia 51.417
rfoot -33.8316 -13.5973
rtoes -31.3763
lfemur -25.888 -0.802568 -3.49316
ltibia 43.3105
lfoot -26.1309 -1.9822
ltoes -30.6244
